# xmcd
#
# Track frame offsets: 
#        150
#        13435
#        26725
#        38306
#        51793
#        65907
#        78474
#        90178
#        103591
#        116863
#        131097
#        145344
#        157942
#        171059
#        184681
#        199304
#        211361
#        221586
#        238674
#        251329
#        266207
#        279749
#        292913
#        306867
#        322768
#
# Disc length: 4483 seconds
#
# Revision: 0
# Processed by: cddbd v1.5.2PL0 Copyright (c) Steve Scherf et al.
# Submitted via: ExactAudioCopyFreeDBPlugin 1.0
#
DISCID=6f118119
DTITLE=John Lee Hooker - Heroes Collection CD2
DYEAR=2012
DGENRE=Blues
TTITLE0=Trouble Blues
TTITLE1=Late Last Night
TTITLE2=Good Rockin´ Mama
TTITLE3=Miss Lorraine
TTITLE4=Whistlin´ and Moanin´ Blues
TTITLE5=Weeping Willow Boogie
TTITLE6=Howlin´ Wolf 
TTITLE7=Ground Hog Blues
TTITLE8=Thinking Blues
TTITLE9=Sally Mae
TTITLE10=Forgive me
TTITLE11=Leave my Wife Alone
TTITLE12=She was in Chicago
TTITLE13=The Great Disaster of 1936
TTITLE14=No Mortgage on my Soul
TTITLE15=Moaning Blues
TTITLE16=See see Baby
TTITLE17=Blues before Sunrise
TTITLE18=Huckle up Baby
TTITLE19=Tupelo Blues
TTITLE20=I´m gonna kill that Woman
TTITLE21=Wefare Blues
TTITLE22=The Numbers
TTITLE23=Black Man Blues
TTITLE24=Cawlin´ King Snake
EXTD=
EXTT0=
EXTT1=
EXTT2=
EXTT3=
EXTT4=
EXTT5=
EXTT6=
EXTT7=
EXTT8=
EXTT9=
EXTT10=
EXTT11=
EXTT12=
EXTT13=
EXTT14=
EXTT15=
EXTT16=
EXTT17=
EXTT18=
EXTT19=
EXTT20=
EXTT21=
EXTT22=
EXTT23=
EXTT24=
PLAYORDER=
